<svg width="265" height="100" viewBox="0 0 265 100" fill="none" xmlns="http://www.w3.org/2000/svg">
<rect x="2.5" y="2.5" width="260" height="95" rx="12.5" fill="white" stroke="black" stroke-width="5"/>
<path d="M5 15C5 9.47715 9.47715 5 15 5H250C255.523 5 260 9.47715 260 15V22C260 24.7614 257.761 27 255 27H10C7.23858 27 5 24.7614 5 22V15Z" fill="#004AAD"/>
<path d="M14.3027 79.8418H19.1953C19.793 79.8418 20.3125 79.9062 20.7539 80.0352C21.1992 80.1602 21.5684 80.334 21.8613 80.5566C22.1543 80.7793 22.3711 81.0449 22.5117 81.3535C22.6562 81.6582 22.7285 81.9883 22.7285 82.3438C22.7285 82.9258 22.5449 83.4355 22.1777 83.873C22.5996 84.123 22.9141 84.4473 23.1211 84.8457C23.3281 85.2441 23.4316 85.6973 23.4316 86.2051C23.4316 86.6309 23.3594 87.0156 23.2148 87.3594C23.0742 87.7031 22.8574 87.998 22.5645 88.2441C22.2754 88.4863 21.9082 88.6738 21.4629 88.8066C21.0215 88.9355 20.5 89 19.8984 89H14.3027V79.8418ZM19.9102 83.3574C20.0703 83.3574 20.2266 83.3633 20.3789 83.375C20.6406 83.125 20.7715 82.8398 20.7715 82.5195C20.7715 82.1875 20.6406 81.9316 20.3789 81.752C20.1211 81.5684 19.7422 81.4766 19.2422 81.4766H16.1602V83.3574H19.9102ZM19.9453 87.3828C20.4453 87.3828 20.8242 87.2754 21.082 87.0605C21.3438 86.8457 21.4746 86.543 21.4746 86.1523C21.4746 85.7617 21.3438 85.457 21.082 85.2383C20.8242 85.0195 20.4453 84.9102 19.9453 84.9102H16.1602V87.3828H19.9453ZM25.3184 79.8418H29.9766C30.6797 79.8418 31.2891 79.916 31.8047 80.0645C32.3203 80.209 32.748 80.4199 33.0879 80.6973C33.4277 80.9746 33.6797 81.3125 33.8438 81.7109C34.0117 82.1094 34.0957 82.5605 34.0957 83.0645C34.0957 83.4043 34.0547 83.7285 33.9727 84.0371C33.8906 84.3418 33.7637 84.623 33.5918 84.8809C33.4238 85.1387 33.2109 85.3691 32.9531 85.5723C32.6953 85.7715 32.3926 85.9375 32.0449 86.0703L34.0371 89H31.7637L30.041 86.3984H29.9883L27.1758 86.3926V89H25.3184V79.8418ZM30.0234 84.7871C30.375 84.7871 30.6816 84.7461 30.9434 84.6641C31.209 84.582 31.4297 84.4668 31.6055 84.3184C31.7852 84.1699 31.918 83.9902 32.0039 83.7793C32.0938 83.5645 32.1387 83.3262 32.1387 83.0645C32.1387 82.5527 31.9629 82.1582 31.6113 81.8809C31.2598 81.5996 30.7305 81.459 30.0234 81.459H27.1758V84.7871H30.0234Z" fill="black"/>
<path d="M56.4269 63.56C56.4269 65.396 55.8149 66.7673 54.5909 67.674C54.0015 68.1047 53.3895 68.4447 52.7549 68.694C52.1429 68.9207 51.5422 69.034 50.9529 69.034H43.5409C42.9515 69.034 42.3395 68.9207 41.7049 68.694C41.0929 68.4447 40.4922 68.1047 39.9029 67.674C39.3135 67.2207 38.8602 66.6653 38.5429 66.008C38.2255 65.328 38.0669 64.512 38.0669 63.56V47.41C38.0669 46.5033 38.2255 45.71 38.5429 45.03C38.8602 44.3273 39.3135 43.7607 39.9029 43.33H39.8689C40.4582 42.9447 41.0702 42.6273 41.7049 42.378C42.3395 42.1287 42.9515 42.004 43.5409 42.004H50.9529C51.5422 42.004 52.1542 42.1287 52.7889 42.378C53.4235 42.6273 54.0355 42.9447 54.6249 43.33H54.5909C55.1802 43.7607 55.6335 44.3273 55.9509 45.03C56.2682 45.71 56.4269 46.5033 56.4269 47.41V49.756C56.4269 50.844 55.7469 51.388 54.3869 51.388C53.0495 51.388 52.3809 50.844 52.3809 49.756V47.716C52.3809 47.1493 52.2109 46.628 51.8709 46.152C51.5309 45.676 50.9415 45.438 50.1029 45.438H44.3909C43.5522 45.438 42.9629 45.676 42.6229 46.152C42.2829 46.628 42.1129 47.1493 42.1129 47.716V63.288C42.1129 63.8773 42.2829 64.41 42.6229 64.886C42.9629 65.362 43.5522 65.6 44.3909 65.6H50.1029C50.9415 65.6 51.5309 65.362 51.8709 64.886C52.2109 64.41 52.3809 63.8773 52.3809 63.288V61.316C52.3809 60.2507 53.0495 59.718 54.3869 59.718C55.7469 59.718 56.4269 60.2507 56.4269 61.316V63.56ZM70.285 45.336L62.839 68.184V68.15C62.703 68.49 62.5104 68.7733 62.261 69C62.0344 69.204 61.751 69.306 61.411 69.306C61.2297 69.306 61.0484 69.2833 60.867 69.238C60.7084 69.2153 60.5384 69.1813 60.357 69.136H60.391C59.099 68.728 58.623 68.0027 58.963 66.96L66.715 43.398C66.8284 43.0353 67.021 42.7293 67.293 42.48C67.5877 42.2307 67.9277 42.0833 68.313 42.038C68.6984 41.97 69.0724 41.9247 69.435 41.902C69.7977 41.8567 70.081 41.834 70.285 41.834C70.489 41.834 70.7724 41.8567 71.135 41.902C71.4977 41.9247 71.8717 41.9587 72.257 42.004C72.5744 42.0493 72.8804 42.2193 73.175 42.514C73.4924 42.8087 73.7304 43.1033 73.889 43.398C75.1584 47.2967 76.439 51.2293 77.731 55.196C79.0457 59.14 80.3377 63.0613 81.607 66.96C81.9244 68.0027 81.4484 68.728 80.179 69.136C79.9977 69.1813 79.8277 69.2153 79.669 69.238C79.533 69.2833 79.3744 69.306 79.193 69.306C78.8757 69.306 78.581 69.204 78.309 69C78.0597 68.7733 77.8784 68.49 77.765 68.15V68.184L70.285 45.336ZM72.835 60.84C72.835 61.5653 72.5744 62.1887 72.053 62.71C71.5544 63.2087 70.9424 63.458 70.217 63.458C69.4917 63.458 68.8797 63.2087 68.381 62.71C67.8824 62.1887 67.633 61.5653 67.633 60.84C67.633 60.1147 67.8824 59.5027 68.381 59.004C68.8797 58.4827 69.4917 58.222 70.217 58.222C70.9424 58.222 71.5544 58.4827 72.053 59.004C72.5744 59.5027 72.835 60.1147 72.835 60.84ZM94.2736 57.814H91.6556C91.2703 57.814 90.9643 57.6667 90.7376 57.372C90.5336 57.0547 90.4316 56.6353 90.4316 56.114C90.4316 54.958 90.9076 54.38 91.8596 54.38H95.8376C96.6763 54.38 97.2656 54.142 97.6056 53.666C97.9456 53.19 98.1156 52.6687 98.1156 52.102V47.716C98.1156 47.1493 97.9456 46.628 97.6056 46.152C97.2656 45.676 96.6763 45.438 95.8376 45.438H88.6636V67.606C88.6636 68.694 87.995 69.238 86.6576 69.238C85.3203 69.238 84.6516 68.694 84.6516 67.606V44.044C84.6516 43.228 84.8556 42.684 85.2636 42.412C85.6943 42.14 86.2043 42.004 86.7936 42.004H96.6876C97.277 42.004 97.889 42.1287 98.5236 42.378C99.1583 42.6273 99.7703 42.9447 100.36 43.33H100.326C100.915 43.7607 101.368 44.3273 101.686 45.03C102.003 45.71 102.162 46.5033 102.162 47.41V52.374C102.162 54.21 101.55 55.5813 100.326 56.488C100.076 56.6693 99.8043 56.8393 99.5096 56.998C99.2376 57.1567 98.9543 57.3153 98.6596 57.474L104.1 66.45C104.168 66.5633 104.236 66.7107 104.304 66.892C104.372 67.0733 104.406 67.2207 104.406 67.334C104.406 67.878 104.02 68.3993 103.25 68.898V68.864C102.728 69.1813 102.286 69.34 101.924 69.34C101.402 69.34 100.983 69.0793 100.666 68.558L100.7 68.592L94.2736 57.814ZM120.414 42.004C121.003 42.004 121.615 42.1287 122.25 42.378C122.884 42.6273 123.496 42.9447 124.086 43.33H124.052C124.641 43.7607 125.094 44.3273 125.412 45.03C125.729 45.71 125.888 46.5033 125.888 47.41V63.56C125.888 65.396 125.276 66.7673 124.052 67.674C123.462 68.1047 122.85 68.4447 122.216 68.694C121.604 68.9207 121.003 69.034 120.414 69.034H113.002C112.412 69.034 111.8 68.9207 111.166 68.694C110.554 68.4447 109.953 68.1047 109.364 67.674C108.774 67.2207 108.321 66.6653 108.004 66.008C107.686 65.328 107.528 64.512 107.528 63.56V47.41C107.528 46.5033 107.686 45.71 108.004 45.03C108.321 44.3273 108.774 43.7607 109.364 43.33H109.33C109.919 42.9447 110.531 42.6273 111.166 42.378C111.8 42.1287 112.412 42.004 113.002 42.004H120.414ZM119.564 65.6C120.402 65.6 120.992 65.362 121.332 64.886C121.672 64.41 121.842 63.8773 121.842 63.288V47.716C121.842 47.1493 121.672 46.628 121.332 46.152C120.992 45.676 120.402 45.438 119.564 45.438H113.852C113.013 45.438 112.424 45.676 112.084 46.152C111.744 46.628 111.574 47.1493 111.574 47.716V63.288C111.574 63.8773 111.744 64.41 112.084 64.886C112.424 65.362 113.013 65.6 113.852 65.6H119.564ZM146.098 43.466C146.098 42.378 146.767 41.834 148.104 41.834C149.442 41.834 150.11 42.378 150.11 43.466V66.926C150.11 67.7193 149.691 68.2973 148.852 68.66H148.886C148.524 68.8187 148.138 68.9433 147.73 69.034C147.322 69.1247 146.926 69.17 146.54 69.17C146.246 69.17 145.94 69.136 145.622 69.068C145.305 69.0227 144.999 68.9433 144.704 68.83C144.432 68.694 144.172 68.524 143.922 68.32C143.696 68.0933 143.514 67.8213 143.378 67.504L136 49.11L135.082 49.212V67.572C135.082 68.66 134.402 69.204 133.042 69.204C131.705 69.204 131.036 68.66 131.036 67.572V44.146C131.036 43.2167 131.444 42.5933 132.26 42.276C133.008 41.9813 133.802 41.834 134.64 41.834C135.23 41.834 135.819 41.9587 136.408 42.208C137.02 42.4347 137.485 42.8767 137.802 43.534L145.146 61.962L146.098 61.86V43.466ZM155.481 64.07C154.71 64.0473 154.144 63.8887 153.781 63.594C153.441 63.2767 153.271 62.846 153.271 62.302C153.271 62.1433 153.271 61.9733 153.271 61.792C153.294 61.6107 153.328 61.4633 153.373 61.35L158.269 43.67C158.541 42.4913 159.368 42.0267 160.751 42.276C161.386 42.412 161.839 42.6613 162.111 43.024C162.406 43.364 162.474 43.8173 162.315 44.384L162.349 44.35L157.827 60.67H163.709V43.466C163.709 42.378 164.366 41.834 165.681 41.834C167.041 41.834 167.721 42.378 167.721 43.466V60.67H169.251C170.158 60.67 170.6 61.2367 170.577 62.37C170.532 63.5033 170.09 64.07 169.251 64.07H167.721V67.946C167.721 69.0113 167.041 69.544 165.681 69.544C164.366 69.544 163.709 69.0113 163.709 67.946V64.07H155.481ZM179.43 69.034C178.841 69.034 178.229 68.9207 177.594 68.694C176.982 68.4447 176.381 68.1047 175.792 67.674C174.591 66.79 173.99 65.4187 173.99 63.56V61.248C173.99 60.1827 174.659 59.65 175.996 59.65C177.311 59.65 177.968 60.1827 177.968 61.248V63.288C177.968 63.8773 178.138 64.41 178.478 64.886C178.841 65.362 179.441 65.6 180.28 65.6H182.49C183.329 65.6 183.918 65.362 184.258 64.886C184.621 64.41 184.802 63.8773 184.802 63.288V57.95C184.802 57.3833 184.632 56.862 184.292 56.386C183.952 55.8873 183.351 55.638 182.49 55.638H176.438C175.758 55.638 175.225 55.4907 174.84 55.196C174.477 54.9013 174.296 54.3913 174.296 53.666V44.044C174.296 43.8627 174.319 43.67 174.364 43.466C174.409 43.262 174.477 43.024 174.568 42.752V42.82C174.84 42.276 175.463 42.004 176.438 42.004H187.318C188.157 42.004 188.599 42.5707 188.644 43.704C188.689 44.86 188.247 45.438 187.318 45.438H178.342V52.238H183.374C184.553 52.238 185.754 52.68 186.978 53.564C188.202 54.38 188.814 55.7513 188.814 57.678V63.56C188.814 64.512 188.655 65.328 188.338 66.008C188.021 66.6653 187.567 67.2207 186.978 67.674C186.389 68.1047 185.777 68.4447 185.142 68.694C184.53 68.9207 183.941 69.034 183.374 69.034H179.43ZM198.721 69.034C198.132 69.034 197.52 68.9207 196.885 68.694C196.273 68.4447 195.672 68.1047 195.083 67.674C193.882 66.79 193.281 65.4187 193.281 63.56V61.248C193.281 60.1827 193.95 59.65 195.287 59.65C196.602 59.65 197.259 60.1827 197.259 61.248V63.288C197.259 63.8773 197.429 64.41 197.769 64.886C198.132 65.362 198.732 65.6 199.571 65.6H201.781C202.62 65.6 203.209 65.362 203.549 64.886C203.912 64.41 204.093 63.8773 204.093 63.288V57.95C204.093 57.3833 203.923 56.862 203.583 56.386C203.243 55.8873 202.642 55.638 201.781 55.638H195.729C195.049 55.638 194.516 55.4907 194.131 55.196C193.768 54.9013 193.587 54.3913 193.587 53.666V44.044C193.587 43.8627 193.61 43.67 193.655 43.466C193.7 43.262 193.768 43.024 193.859 42.752V42.82C194.131 42.276 194.754 42.004 195.729 42.004H206.609C207.448 42.004 207.89 42.5707 207.935 43.704C207.98 44.86 207.538 45.438 206.609 45.438H197.633V52.238H202.665C203.844 52.238 205.045 52.68 206.269 53.564C207.493 54.38 208.105 55.7513 208.105 57.678V63.56C208.105 64.512 207.946 65.328 207.629 66.008C207.312 66.6653 206.858 67.2207 206.269 67.674C205.68 68.1047 205.068 68.4447 204.433 68.694C203.821 68.9207 203.232 69.034 202.665 69.034H198.721ZM221.786 42.004C222.353 42.004 222.953 42.1287 223.588 42.378C224.223 42.6273 224.835 42.9447 225.424 43.33H225.39C225.979 43.7607 226.433 44.3273 226.75 45.03C227.067 45.71 227.226 46.5033 227.226 47.41V63.56C227.226 64.512 227.067 65.328 226.75 66.008C226.433 66.6653 225.979 67.2207 225.39 67.674C224.801 68.1047 224.2 68.4447 223.588 68.694C222.976 68.9207 222.375 69.034 221.786 69.034H218.216C217.627 69.034 217.015 68.9207 216.38 68.694C215.768 68.4447 215.167 68.1047 214.578 67.674C213.989 67.2207 213.524 66.6653 213.184 66.008C212.867 65.328 212.708 64.512 212.708 63.56V47.41C212.708 46.5033 212.867 45.71 213.184 45.03C213.524 44.3273 213.989 43.7607 214.578 43.33H214.544C215.133 42.9447 215.745 42.6273 216.38 42.378C217.015 42.1287 217.627 42.004 218.216 42.004H221.786ZM220.902 65.6C221.741 65.6 222.33 65.362 222.67 64.886C223.033 64.41 223.214 63.8773 223.214 63.288V47.716C223.214 47.1493 223.033 46.628 222.67 46.152C222.33 45.676 221.741 45.438 220.902 45.438H219.032C218.193 45.438 217.593 45.676 217.23 46.152C216.89 46.628 216.72 47.1493 216.72 47.716V63.288C216.72 63.8773 216.89 64.41 217.23 64.886C217.593 65.362 218.193 65.6 219.032 65.6H220.902Z" fill="black"/>
<path d="M89.3339 11.44V22H86.9499V15.784L87.0539 14.016L86.6459 16.04L84.8699 21.152H82.5259L80.7579 16.04L80.3579 14.016L80.4619 15.784V22H78.0699V11.44H81.4299L83.5579 18.488L83.7019 19.328L83.8459 18.488L85.9739 11.44H89.3339ZM91.3301 11.44H93.7221V22H91.3301V11.44ZM97.7863 13.632L97.9623 13.664V22H95.5703V11.44H98.8343L103.114 19.76L102.938 19.792V11.44H105.33V22H102.05L97.7863 13.632ZM110.557 11.44H112.933L117.101 22H114.549L113.781 19.88H109.717L108.941 22H106.381L110.557 11.44ZM110.517 17.784H112.989L111.765 14.32H111.741L110.517 17.784ZM121.793 11.248C122.449 11.248 123.023 11.32 123.513 11.464C124.004 11.608 124.399 11.76 124.697 11.92C124.996 12.08 125.177 12.1867 125.241 12.24L124.089 14.168C124.004 14.104 123.857 14.0107 123.649 13.888C123.447 13.7653 123.204 13.656 122.921 13.56C122.644 13.464 122.353 13.416 122.049 13.416C121.639 13.416 121.305 13.4907 121.049 13.64C120.799 13.784 120.673 14 120.673 14.288C120.673 14.4853 120.74 14.664 120.873 14.824C121.012 14.9787 121.22 15.128 121.497 15.272C121.78 15.4107 122.137 15.5627 122.569 15.728C122.964 15.872 123.335 16.0427 123.681 16.24C124.028 16.4373 124.332 16.672 124.593 16.944C124.86 17.2107 125.071 17.52 125.225 17.872C125.38 18.224 125.457 18.624 125.457 19.072C125.457 19.6053 125.348 20.0693 125.129 20.464C124.911 20.8533 124.612 21.176 124.233 21.432C123.86 21.688 123.433 21.8773 122.953 22C122.479 22.128 121.985 22.192 121.473 22.192C120.748 22.192 120.097 22.1093 119.521 21.944C118.951 21.7787 118.489 21.6 118.137 21.408C117.785 21.216 117.575 21.088 117.505 21.024L118.697 19.016C118.761 19.064 118.884 19.1413 119.065 19.248C119.252 19.3547 119.479 19.4667 119.745 19.584C120.012 19.696 120.295 19.792 120.593 19.872C120.897 19.952 121.196 19.992 121.489 19.992C121.98 19.992 122.348 19.8987 122.593 19.712C122.839 19.52 122.961 19.2693 122.961 18.96C122.961 18.7307 122.884 18.5253 122.729 18.344C122.575 18.1627 122.343 17.992 122.033 17.832C121.724 17.6667 121.337 17.4933 120.873 17.312C120.409 17.1253 119.975 16.8987 119.569 16.632C119.169 16.3653 118.844 16.032 118.593 15.632C118.343 15.232 118.217 14.736 118.217 14.144C118.217 13.552 118.383 13.04 118.713 12.608C119.049 12.1707 119.489 11.8347 120.033 11.6C120.583 11.3653 121.169 11.248 121.793 11.248ZM136.141 16.096H141.525V16.768C141.525 17.5253 141.397 18.232 141.141 18.888C140.89 19.544 140.53 20.12 140.061 20.616C139.591 21.112 139.031 21.4987 138.381 21.776C137.73 22.0533 137.01 22.192 136.221 22.192C135.405 22.192 134.663 22.0533 133.997 21.776C133.335 21.4933 132.765 21.1013 132.285 20.6C131.805 20.0987 131.437 19.5173 131.181 18.856C130.925 18.1893 130.797 17.4747 130.797 16.712C130.797 15.9547 130.925 15.2453 131.181 14.584C131.437 13.9173 131.805 13.336 132.285 12.84C132.765 12.3387 133.335 11.9493 133.997 11.672C134.663 11.3893 135.405 11.248 136.221 11.248C136.887 11.248 137.474 11.32 137.981 11.464C138.493 11.608 138.933 11.8 139.301 12.04C139.669 12.28 139.981 12.544 140.237 12.832C140.493 13.1147 140.706 13.392 140.877 13.664L138.605 14.736C138.386 14.4 138.087 14.1067 137.709 13.856C137.335 13.6053 136.839 13.48 136.221 13.48C135.789 13.48 135.391 13.5653 135.029 13.736C134.671 13.9067 134.362 14.1413 134.101 14.44C133.839 14.7333 133.637 15.0773 133.493 15.472C133.354 15.8613 133.285 16.2747 133.285 16.712C133.285 17.1547 133.354 17.5707 133.493 17.96C133.637 18.3493 133.839 18.6933 134.101 18.992C134.362 19.2907 134.671 19.5253 135.029 19.696C135.391 19.8613 135.789 19.944 136.221 19.944C136.599 19.944 136.943 19.896 137.253 19.8C137.562 19.704 137.829 19.5653 138.053 19.384C138.282 19.2027 138.461 18.9893 138.589 18.744C138.722 18.4933 138.802 18.2187 138.829 17.92H136.141V16.096ZM142.898 11.44H149.642V13.536H145.282V15.688H149.602V17.72H145.282V19.904H149.642V22H142.898V11.44ZM151.397 11.44H155.701C156.315 11.44 156.861 11.568 157.341 11.824C157.821 12.08 158.2 12.4507 158.477 12.936C158.76 13.416 158.901 13.9893 158.901 14.656C158.901 15.3227 158.781 15.8693 158.541 16.296C158.307 16.7173 158.024 17.0347 157.693 17.248C157.363 17.456 157.056 17.5813 156.773 17.624L159.341 22H156.653L154.365 17.808H153.789V22H151.397V11.44ZM153.789 16.152H154.845C155.272 16.152 155.645 16.048 155.965 15.84C156.285 15.632 156.445 15.264 156.445 14.736C156.445 14.208 156.288 13.8427 155.973 13.64C155.659 13.432 155.288 13.328 154.861 13.328H153.789V16.152ZM163.572 11.44H165.948L170.116 22H167.564L166.796 19.88H162.732L161.956 22H159.396L163.572 11.44ZM163.532 17.784H166.004L164.78 14.32H164.756L163.532 17.784ZM171.049 11.44H173.441V22H171.049V11.44ZM179.137 11.248C179.793 11.248 180.366 11.32 180.857 11.464C181.348 11.608 181.742 11.76 182.041 11.92C182.34 12.08 182.521 12.1867 182.585 12.24L181.433 14.168C181.348 14.104 181.201 14.0107 180.993 13.888C180.79 13.7653 180.548 13.656 180.265 13.56C179.988 13.464 179.697 13.416 179.393 13.416C178.982 13.416 178.649 13.4907 178.393 13.64C178.142 13.784 178.017 14 178.017 14.288C178.017 14.4853 178.084 14.664 178.217 14.824C178.356 14.9787 178.564 15.128 178.841 15.272C179.124 15.4107 179.481 15.5627 179.913 15.728C180.308 15.872 180.678 16.0427 181.025 16.24C181.372 16.4373 181.676 16.672 181.937 16.944C182.204 17.2107 182.414 17.52 182.569 17.872C182.724 18.224 182.801 18.624 182.801 19.072C182.801 19.6053 182.692 20.0693 182.473 20.464C182.254 20.8533 181.956 21.176 181.577 21.432C181.204 21.688 180.777 21.8773 180.297 22C179.822 22.128 179.329 22.192 178.817 22.192C178.092 22.192 177.441 22.1093 176.865 21.944C176.294 21.7787 175.833 21.6 175.481 21.408C175.129 21.216 174.918 21.088 174.849 21.024L176.041 19.016C176.105 19.064 176.228 19.1413 176.409 19.248C176.596 19.3547 176.822 19.4667 177.089 19.584C177.356 19.696 177.638 19.792 177.937 19.872C178.241 19.952 178.54 19.992 178.833 19.992C179.324 19.992 179.692 19.8987 179.937 19.712C180.182 19.52 180.305 19.2693 180.305 18.96C180.305 18.7307 180.228 18.5253 180.073 18.344C179.918 18.1627 179.686 17.992 179.377 17.832C179.068 17.6667 178.681 17.4933 178.217 17.312C177.753 17.1253 177.318 16.8987 176.913 16.632C176.513 16.3653 176.188 16.032 175.937 15.632C175.686 15.232 175.561 14.736 175.561 14.144C175.561 13.552 175.726 13.04 176.057 12.608C176.393 12.1707 176.833 11.8347 177.377 11.6C177.926 11.3653 178.513 11.248 179.137 11.248Z" fill="white"/>
<rect x="58" y="5" width="12" height="5" rx="2.5" fill="white"/>
<rect x="191" y="5" width="12" height="5" rx="2.5" fill="white"/>
</svg>
